<?xml version="1.0" encoding="iso-8859-1"?>
<!-- Uploaded to: SVG Repo, www.svgrepo.com, Generator: SVG Repo Mixer Tools -->
<svg height="800px" width="800px" version="1.1" id="Layer_1" xmlns="http://www.w3.org/2000/svg" xmlns:xlink="http://www.w3.org/1999/xlink" 
	 viewBox="0 0 512 512" xml:space="preserve">
<g transform="translate(1 1)">
	<g>
		<path style="fill:#FCC309;" d="M118.467,67.267h68.267V7.533h-68.267V67.267z"/>
		<path style="fill:#FCC309;" d="M118.467,212.333h68.267v-76.8h-68.267V212.333z"/>
		<path style="fill:#FCC309;" d="M323.267,67.267h68.267V7.533h-68.267V67.267z"/>
		<path style="fill:#FCC309;" d="M323.267,212.333h68.267v-76.8h-68.267V212.333z"/>
	</g>
	<path style="fill:#FD9808;" d="M365.933,212.333h25.6v-76.8h-25.6V212.333z"/>
	<path style="fill:#FCC309;" d="M323.267,357.4h68.267v-76.8h-68.267V357.4z"/>
	<path style="fill:#FD9808;" d="M365.933,357.4h25.6v-76.8h-25.6V357.4z"/>
	<path style="fill:#FCC309;" d="M323.267,502.467h68.267v-76.8h-68.267V502.467z"/>
	<g>
		<path style="fill:#FD9808;" d="M365.933,502.467h25.6v-76.8h-25.6V502.467z"/>
		<path style="fill:#FD9808;" d="M365.933,67.267h25.6V7.533h-25.6V67.267z"/>
	</g>
	<path style="fill:#FFFFFF;" d="M118.467,212.333h25.6v-76.8h-25.6V212.333z"/>
	<path style="fill:#FCC309;" d="M118.467,357.4h68.267v-76.8h-68.267V357.4z"/>
	<path style="fill:#FFFFFF;" d="M118.467,357.4h25.6v-76.8h-25.6V357.4z"/>
	<path style="fill:#FCC309;" d="M118.467,502.467h68.267v-76.8h-68.267V502.467z"/>
	<g>
		<path style="fill:#FFFFFF;" d="M118.467,502.467h25.6v-76.8h-25.6V502.467z"/>
		<path style="fill:#FFFFFF;" d="M118.467,67.267h25.6V7.533h-25.6V67.267z"/>
	</g>
	<g>
		<path style="fill:#FFDD09;" d="M84.333,280.6h341.333v-68.267H84.333V280.6z"/>
		<path style="fill:#FFDD09;" d="M84.333,135.533h341.333V67.267H84.333V135.533z"/>
	</g>
	<g>
		<path style="fill:#FD9808;" d="M400.067,135.533h25.6V67.267h-25.6V135.533z"/>
		<path style="fill:#FD9808;" d="M400.067,280.6h25.6v-68.267h-25.6V280.6z"/>
	</g>
	<g>
		<path style="fill:#FFFFFF;" d="M84.333,135.533h25.6V67.267h-25.6V135.533z"/>
		<path style="fill:#FFFFFF;" d="M84.333,280.6h25.6v-68.267h-25.6V280.6z"/>
	</g>
	<path style="fill:#FFDD09;" d="M84.333,425.667h341.333V357.4H84.333V425.667z"/>
	<path style="fill:#FD9808;" d="M400.067,425.667h25.6V357.4h-25.6V425.667z"/>
	<path style="fill:#FFFFFF;" d="M84.333,425.667h25.6V357.4h-25.6V425.667z"/>
	<path d="M425.667,289.133H84.333c-5.12,0-8.533-3.413-8.533-8.533v-68.267c0-5.12,3.413-8.533,8.533-8.533h341.333
		c5.12,0,8.533,3.413,8.533,8.533V280.6C434.2,285.72,430.787,289.133,425.667,289.133z M92.867,272.067h324.267v-51.2H92.867
		V272.067z"/>
	<path d="M425.667,144.067H84.333c-5.12,0-8.533-3.413-8.533-8.533V67.267c0-5.12,3.413-8.533,8.533-8.533h341.333
		c5.12,0,8.533,3.413,8.533,8.533v68.267C434.2,140.653,430.787,144.067,425.667,144.067z M92.867,127h324.267V75.8H92.867V127z"/>
	<path d="M161.133,246.467c0,5.12-3.413,8.533-8.533,8.533c-5.12,0-8.533-3.413-8.533-8.533c0-5.12,3.413-8.533,8.533-8.533
		C157.72,237.933,161.133,242.2,161.133,246.467"/>
	<path d="M161.133,101.4c0,5.12-3.413,8.533-8.533,8.533c-5.12,0-8.533-3.413-8.533-8.533c0-5.12,3.413-8.533,8.533-8.533
		C157.72,92.867,161.133,97.133,161.133,101.4"/>
	<path d="M365.933,101.4c0,5.12-3.413,8.533-8.533,8.533s-8.533-3.413-8.533-8.533c0-5.12,3.413-8.533,8.533-8.533
		S365.933,97.133,365.933,101.4"/>
	<path d="M365.933,246.467c0,5.12-3.413,8.533-8.533,8.533s-8.533-3.413-8.533-8.533c0-5.12,3.413-8.533,8.533-8.533
		S365.933,242.2,365.933,246.467"/>
	<path d="M186.733,75.8h-68.267c-4.267,0-8.533-3.413-8.533-8.533V7.533c0-5.12,3.413-8.533,8.533-8.533h68.267
		c5.12,0,8.533,3.413,8.533,8.533v59.733C195.267,72.387,191.853,75.8,186.733,75.8z M127,58.733h51.2V16.067H127V58.733z"/>
	<path d="M186.733,220.867h-68.267c-5.12,0-8.533-3.413-8.533-8.533v-76.8c0-5.12,3.413-8.533,8.533-8.533h68.267
		c5.12,0,8.533,3.413,8.533,8.533v76.8C195.267,217.453,191.853,220.867,186.733,220.867z M127,203.8h51.2v-59.733H127V203.8z"/>
	<path d="M391.533,75.8h-68.267c-5.12,0-8.533-3.413-8.533-8.533V7.533c0-5.12,3.413-8.533,8.533-8.533h68.267
		c5.12,0,8.533,3.413,8.533,8.533v59.733C400.067,72.387,396.653,75.8,391.533,75.8z M331.8,58.733H383V16.067h-51.2V58.733z"/>
	<path d="M391.533,220.867h-68.267c-5.12,0-8.533-3.413-8.533-8.533v-76.8c0-5.12,3.413-8.533,8.533-8.533h68.267
		c5.12,0,8.533,3.413,8.533,8.533v76.8C400.067,217.453,396.653,220.867,391.533,220.867z M331.8,203.8H383v-59.733h-51.2V203.8z"/>
	<path d="M425.667,434.2H84.333c-5.12,0-8.533-3.413-8.533-8.533V357.4c0-5.12,3.413-8.533,8.533-8.533h341.333
		c5.12,0,8.533,3.413,8.533,8.533v68.267C434.2,430.787,430.787,434.2,425.667,434.2z M92.867,417.133h324.267v-51.2H92.867V417.133
		z"/>
	<path d="M161.133,391.533c0,5.12-3.413,8.533-8.533,8.533c-5.12,0-8.533-3.413-8.533-8.533S147.48,383,152.6,383
		C157.72,383,161.133,387.267,161.133,391.533"/>
	<path d="M365.933,391.533c0,5.12-3.413,8.533-8.533,8.533s-8.533-3.413-8.533-8.533S352.28,383,357.4,383
		S365.933,387.267,365.933,391.533"/>
	<path d="M186.733,365.933h-68.267c-5.12,0-8.533-3.413-8.533-8.533v-76.8c0-5.12,3.413-8.533,8.533-8.533h68.267
		c5.12,0,8.533,3.413,8.533,8.533v76.8C195.267,362.52,191.853,365.933,186.733,365.933z M127,348.867h51.2v-59.733H127V348.867z"/>
	<path d="M391.533,365.933h-68.267c-5.12,0-8.533-3.413-8.533-8.533v-76.8c0-5.12,3.413-8.533,8.533-8.533h68.267
		c5.12,0,8.533,3.413,8.533,8.533v76.8C400.067,362.52,396.653,365.933,391.533,365.933z M331.8,348.867H383v-59.733h-51.2V348.867z
		"/>
	<path d="M186.733,511h-68.267c-5.12,0-8.533-3.413-8.533-8.533v-76.8c0-5.12,3.413-8.533,8.533-8.533h68.267
		c5.12,0,8.533,3.413,8.533,8.533v76.8C195.267,507.587,191.853,511,186.733,511z M127,493.933h51.2V434.2H127V493.933z"/>
	<path d="M391.533,511h-68.267c-5.12,0-8.533-3.413-8.533-8.533v-76.8c0-5.12,3.413-8.533,8.533-8.533h68.267
		c5.12,0,8.533,3.413,8.533,8.533v76.8C400.067,507.587,396.653,511,391.533,511z M331.8,493.933H383V434.2h-51.2V493.933z"/>
</g>
</svg>