<?xml version="1.0" standalone="no"?>
<!DOCTYPE svg PUBLIC "-//W3C//DTD SVG 20010904//EN"
 "http://www.w3.org/TR/2001/REC-SVG-20010904/DTD/svg10.dtd">
<svg version="1.0" xmlns="http://www.w3.org/2000/svg"
 width="700.000000pt" height="700.000000pt" viewBox="0 0 700.000000 700.000000"
 preserveAspectRatio="xMidYMid meet">
<metadata>
Created by potrace 1.14, written by Peter Selinger 2001-2017
</metadata>
<g transform="translate(0.000000,700.000000) scale(0.100000,-0.100000)"
fill="#000000" stroke="none">
<path d="M1573 6984 c-55 -27 -57 -42 -57 -438 l-1 -361 -194 -1 c-175 -2
-196 -4 -220 -21 -51 -39 -51 -33 -51 -563 0 -530 0 -524 52 -563 24 -18 45
-20 215 -22 103 -1 191 -3 194 -4 3 0 5 -183 5 -406 l0 -405 -188 0 c-213 0
-239 -6 -264 -65 -19 -45 -21 -999 -2 -1039 25 -55 46 -61 250 -62 104 0 191
-4 195 -8 13 -12 11 -806 -1 -807 -6 -1 -92 -2 -191 -4 -99 -1 -185 -3 -191
-4 -19 -2 -53 -37 -64 -65 -6 -18 -10 -203 -10 -517 0 -538 -1 -533 60 -564
23 -12 69 -15 218 -15 l188 0 0 -479 c1 -362 4 -486 13 -509 26 -62 27 -62
573 -62 529 0 522 0 561 52 20 27 20 41 20 513 l0 485 817 0 817 0 -1 -462
c-1 -255 3 -480 7 -500 5 -20 20 -47 34 -60 l25 -23 504 -3 c549 -3 543 -3
580 54 15 23 17 74 17 510 l1 484 188 0 c149 0 195 3 218 15 61 31 60 27 60
563 0 323 -4 499 -11 520 -21 60 -43 66 -249 68 -102 2 -190 3 -196 3 -12 1
-14 794 -1 807 4 4 87 8 185 9 217 3 205 1 229 23 43 37 43 40 43 564 l0 504
-29 34 -29 35 -204 3 -204 3 0 407 1 407 194 1 c175 2 196 4 220 21 51 39 51
33 51 563 0 530 0 524 -51 563 -25 18 -45 20 -220 21 l-194 1 -1 368 c-1 352
-2 369 -21 395 -39 52 -32 52 -571 52 l-504 0 -34 -34 c-19 -19 -34 -45 -35
-57 0 -13 -2 -181 -2 -374 l-2 -350 -795 -2 c-437 -1 -804 0 -816 2 -20 4 -20
8 -20 370 0 352 -1 366 -21 393 -39 52 -32 52 -563 52 -428 0 -499 -3 -527
-16z m2743 -2376 l0 -408 -816 0 -817 0 0 403 c0 221 4 405 9 408 5 3 372 6
816 6 l808 0 0 -409z m0 -1980 c0 -361 -1 -407 -15 -410 -14 -3 -1575 -2
-1607 1 -12 1 -16 803 -3 811 4 3 371 5 816 4 l808 0 1 -406z"/>
</g>
</svg>
